<?xml version="1.0" encoding="UTF-8" standalone="no"?>
<svg
   xmlns:dc="http://purl.org/dc/elements/1.1/"
   xmlns:cc="http://creativecommons.org/ns#"
   xmlns:rdf="http://www.w3.org/1999/02/22-rdf-syntax-ns#"
   xmlns:svg="http://www.w3.org/2000/svg"
   xmlns="http://www.w3.org/2000/svg"
   xmlns:sodipodi="http://sodipodi.sourceforge.net/DTD/sodipodi-0.dtd"
   xmlns:inkscape="http://www.inkscape.org/namespaces/inkscape"
   width="79mm"
   height="297mm"
   viewBox="0 0 79 297"
   version="1.1"
   id="svg8"
   inkscape:version="1.0.2-2 (e86c870879, 2021-01-15)"
   sodipodi:docname="arrow.svg">
  <defs
     id="defs2" />
  <sodipodi:namedview
     id="base"
     pagecolor="#ffffff"
     bordercolor="#666666"
     borderopacity="1.0"
     inkscape:pageopacity="0.0"
     inkscape:pageshadow="2"
     inkscape:zoom="0.35"
     inkscape:cx="400"
     inkscape:cy="695.68003"
     inkscape:document-units="mm"
     inkscape:current-layer="layer1"
     inkscape:document-rotation="0"
     showgrid="false"
     inkscape:window-width="1366"
     inkscape:window-height="715"
     inkscape:window-x="-8"
     inkscape:window-y="-8"
     inkscape:window-maximized="1" />
  <metadata
     id="metadata5">
    <rdf:RDF>
      <cc:Work
         rdf:about="">
        <dc:format>image/svg+xml</dc:format>
        <dc:type
           rdf:resource="http://purl.org/dc/dcmitype/StillImage" />
        <dc:title></dc:title>
      </cc:Work>
    </rdf:RDF>
  </metadata>
  <g
     inkscape:label="Layer 1"
     inkscape:groupmode="layer"
     id="layer1">
    <path
       style="fill:#ff0000;stroke-width:0.264583"
       id="path48"
       d="m 72.088885,51.113752 c -0.37374,-0.23986 -0.7931,-0.420346 -1.12123,-0.719584 -1.47571,-1.345737 -3.5138,-3.937011 -4.60807,-5.397127 -3.47455,-4.636164 -6.51639,-9.520473 -9.50995,-14.472994 -4.43314,-7.702751 -8.70489,-15.532601 -11.82903,-23.8682687 -2.06718,-6.10052807 -2.78784,-3.4854671 -11.57382,3.128073 -0.56269,0.4235617 -0.17498,1.3986357 -0.30669,2.0905037 -0.54481,2.861836 -0.89664,3.769927 -1.76461,6.767292 -3.75313,11.231194 -11.091547,20.927848 -20.818583,27.736836 -2.5978832,1.818535 -5.4708242,3.208486 -8.2062342,4.812726 0,0 8.7732152,-3.381724 8.7732152,-3.381724 v 0 c 2.750349,-1.665499 5.639361,-3.12102 8.251044,-4.996497 9.929068,-7.130167 17.456488,-17.162547 21.496368,-28.658821 0.43446,-1.343245 0.86892,-2.68649 1.30339,-4.029735 0.27237,-0.9912097 0.51575,-1.9908467 0.81711,-2.9736297 0.19539,-0.637211 1.31127,-2.072263 0.67218,-1.883118 -3.33678,0.987549 -6.28768,2.983684 -9.43151,4.475525 0.19113,0.09977 0.45641,0.118207 0.57338,0.2993177 0.36786,0.569542 0.5478,1.240442 0.82171,1.860663 3.52475,8.209809 7.99735,15.974566 12.46531,23.698089 3.66779,6.114347 2.47077,4.223007 6.29014,10.178989 2.27487,3.547462 4.52938,7.194191 7.23357,10.443713 0.39502,0.474686 0.85391,0.892373 1.28086,1.338559 0,0 9.19145,-6.448788 9.19145,-6.448788 z" />
    <path
       style="fill:#ff0000;stroke-width:0.264583"
       id="path50"
       d="m 32.586955,15.426039 c 3.1112,3.943346 4.08713,8.958646 5.11533,13.750117 2.87963,13.767983 3.6841,27.827007 4.32825,41.840674 0.14626,3.562786 0.32619,7.12435 0.43876,10.688359 0.39372,12.464786 0.21874,12.04939 0.42366,24.702491 0.29066,17.94721 0.61221,35.89022 0.81535,53.83915 0.38922,35.7388 0.0179,71.47937 -0.87419,107.20752 -0.0426,2.38217 -0.2264,11.8342 -0.23378,14.90612 -0.008,3.16828 0.0332,6.19022 0.64033,9.29219 0,0 9.6497,-5.20845 9.6497,-5.20845 v 0 c -2.14589,-7.31616 -1.26017,-15.61923 -1.96417,-23.11255 -0.87722,-35.43992 -1.19728,-70.89184 -0.82646,-106.34189 0.30195,-30.12252 0.82778,-60.242817 0.46894,-90.367431 -0.50972,-14.180426 -1.2162,-28.378878 -3.61952,-42.389451 -0.93429,-5.051357 -1.82679,-10.206072 -4.72938,-14.5642017 0,0 -9.63282,5.7573527 -9.63282,5.7573527 z" />
  </g>
</svg>
