<?xml version="1.0" encoding="UTF-8" standalone="no"?>
<svg
   xmlns:dc="http://purl.org/dc/elements/1.1/"
   xmlns:cc="http://creativecommons.org/ns#"
   xmlns:rdf="http://www.w3.org/1999/02/22-rdf-syntax-ns#"
   xmlns:svg="http://www.w3.org/2000/svg"
   xmlns="http://www.w3.org/2000/svg"
   xmlns:sodipodi="http://sodipodi.sourceforge.net/DTD/sodipodi-0.dtd"
   xmlns:inkscape="http://www.inkscape.org/namespaces/inkscape"
   version="1.1"
   id="svg867"
   width="18"
   height="4"
   viewBox="0 0 18 4"
   sodipodi:docname="logo.svg"
   inkscape:version="1.0 (4035a4fb49, 2020-05-01)">
  <metadata
     id="metadata873">
    <rdf:RDF>
      <cc:Work
         rdf:about="">
        <dc:format>image/svg+xml</dc:format>
        <dc:type
           rdf:resource="http://purl.org/dc/dcmitype/StillImage" />
        <dc:title></dc:title>
      </cc:Work>
    </rdf:RDF>
  </metadata>
  <defs
     id="defs871" />
  <sodipodi:namedview
     inkscape:document-rotation="0"
     pagecolor="#ffffff"
     bordercolor="#666666"
     borderopacity="1"
     objecttolerance="10"
     gridtolerance="10"
     guidetolerance="10"
     inkscape:pageopacity="0"
     inkscape:pageshadow="2"
     inkscape:window-width="1024"
     inkscape:window-height="729"
     id="namedview869"
     showgrid="false"
     inkscape:snap-bbox="true"
     inkscape:snap-bbox-midpoints="true"
     inkscape:zoom="22.627417"
     inkscape:cx="6.6740896"
     inkscape:cy="5.6920306"
     inkscape:window-x="0"
     inkscape:window-y="20"
     inkscape:window-maximized="0"
     inkscape:current-layer="g898" />
  <g
     inkscape:groupmode="layer"
     inkscape:label="Image"
     id="g875">
    <g
       id="g879"
       transform="translate(3.8932976,-23.862)">
      <g
         id="g898"
         transform="matrix(0.67702615,0,0,0.67702615,-2.53325,38.823841)">
        <g
           id="g920"
           transform="matrix(0.06425628,0,0,0.06425628,-2.9279114,-24.841887)">
          <path
             style="fill:#3c3c3c;stroke-width:0.32"
             d="m 194.3718,110.24963 c -7.61453,-1.48738 -13.36323,-6.28972 -16.36123,-13.667869 -0.43969,-1.082074 -0.68228,-2.080762 -0.5391,-2.219309 0.24422,-0.236307 6.65385,-2.860755 6.98676,-2.860755 0.0845,0 0.15357,0.184064 0.15357,0.409027 0,0.224966 0.48419,1.419357 1.07597,2.654205 1.54504,3.223958 4.15804,5.921981 7.18224,7.415941 2.385,1.1782 2.50044,1.20082 6.1263,1.20055 3.35677,-2.4e-4 3.86666,-0.0804 5.56298,-0.87488 2.6336,-1.2334 4.09842,-2.492843 5.18884,-4.461307 0.84956,-1.533648 0.94344,-1.990749 0.94138,-4.583536 -0.003,-3.353709 -0.51381,-4.602807 -2.7713,-6.772461 -1.94925,-1.873405 -4.66951,-3.246093 -11.30641,-5.705405 -3.168,-1.173904 -6.88392,-2.718784 -8.25759,-3.433065 -3.41809,-1.777328 -6.01604,-4.38361 -7.53017,-7.554317 -1.14815,-2.404311 -1.17224,-2.533658 -1.17224,-6.294752 0,-3.633079 0.0534,-3.952083 0.99164,-5.92 2.07027,-4.342506 5.65192,-7.510778 10.37558,-9.178098 3.20029,-1.129612 8.40582,-1.390219 11.96269,-0.598892 5.28906,1.176704 10.62731,5.099006 12.71708,9.343931 0.55389,1.125113 0.93988,2.11286 0.85775,2.194988 -0.0821,0.08213 -1.65997,0.782228 -3.5063,1.555773 l -3.35698,1.406451 -0.70272,-1.531788 c -0.91625,-1.997226 -3.73765,-4.566384 -5.90543,-5.377456 -7.57135,-2.832804 -15.93236,1.334444 -15.90628,7.92792 0.0186,4.710384 2.60209,6.770864 13.5266,10.788358 5.68237,2.08969 7.97183,3.183379 10.67151,5.097834 4.83275,3.427104 7.14275,7.918406 7.15106,13.903747 0.007,4.962553 -1.35284,8.368325 -4.67373,11.706455 -2.17219,2.18346 -5.90344,4.23473 -9.24247,5.08108 -2.78495,0.7059 -7.57357,0.86847 -10.24,0.34763 z m 47.49669,0.13317 c -4.3969,-0.70005 -8.32412,-2.87294 -11.61322,-6.42546 -3.56905,-3.8549 -5.24718,-8.157845 -5.55054,-14.23221 -0.23662,-4.738281 0.39548,-7.9499 2.35247,-11.952576 3.47256,-7.10247 10.11132,-11.241257 18.00579,-11.225302 11.793,0.02384 19.46847,7.909338 19.9291,20.474445 l 0.0997,2.72 -16.40001,0.0829 c -18.61026,0.09408 -16.69022,-0.260611 -16.07755,2.970007 0.94704,4.993737 4.58115,9.011016 9.40611,10.397886 2.55888,0.73552 6.7933,0.53387 8.93689,-0.42559 2.13605,-0.95609 3.91693,-2.43646 5.4716,-4.548328 l 1.31893,-1.791626 3.11887,1.490893 c 1.71537,0.81999 3.21175,1.58377 3.32526,1.697286 0.36192,0.361918 -2.17466,3.701525 -4.26929,5.620885 -2.2512,2.06281 -5.67695,3.92573 -8.59081,4.67165 -2.39656,0.6135 -7.10839,0.85007 -9.46331,0.47514 z M 256.9318,82.8737 c 0,-2.930269 -2.76833,-6.770282 -5.9215,-8.21385 -6.53173,-2.990323 -13.93888,-0.636476 -16.84612,5.35336 -0.46142,0.950669 -0.93891,2.196487 -1.06109,2.768487 l -0.22215,1.04 h 12.02542 12.02544 z m 26.34917,27.49761 c -3.71427,-0.66588 -6.6261,-2.3073 -9.31792,-5.25258 -2.34837,-2.56949 -3.08867,-4.64444 -3.08867,-8.657033 0,-2.56848 0.14197,-3.556624 0.71938,-5.007069 1.41091,-3.544176 4.63721,-6.277706 9.23313,-7.822915 4.90573,-1.649363 12.43902,-1.377667 17.40379,0.627689 l 1.98419,0.801456 -0.15345,-2.144736 c -0.0844,-1.179606 -0.44291,-2.790416 -0.79669,-3.57958 -0.83711,-1.867348 -3.00077,-3.963991 -5.21078,-5.049396 -1.58054,-0.776256 -2.10843,-0.864572 -5.12215,-0.856934 -2.99881,0.0076 -3.55321,0.102528 -5.15735,0.883062 -0.98853,0.480999 -2.5328,1.610004 -3.4317,2.508903 -0.98162,0.981619 -1.81691,1.564307 -2.09145,1.458957 -0.88215,-0.338512 -5.9595,-3.727786 -5.9595,-3.978132 0,-0.495088 3.38683,-3.710374 5.0151,-4.761084 5.5053,-3.552541 15.05903,-3.998637 21.19319,-0.989588 3.95844,1.941776 6.89483,5.487527 8.07798,9.754336 0.53803,1.94032 0.59373,3.500173 0.59373,16.628106 v 14.486918 h -3.52 -3.52 v -3.04 c 0,-1.672 -0.1099,-3.04 -0.24421,-3.04 -0.13432,0 -0.85255,0.7789 -1.59606,1.73089 -1.58647,2.03131 -4.58765,4.13631 -6.91197,4.848 -2.04849,0.62723 -5.914,0.84237 -8.09859,0.45073 z m 7.10359,-6.88626 c 2.45002,-0.63798 4.22288,-1.68857 6.14563,-3.641894 1.79377,-1.822285 2.84005,-3.760861 3.35512,-6.216435 0.42682,-2.034899 0.22527,-2.436339 -1.72204,-3.429776 -3.21416,-1.639744 -9.46819,-2.084928 -13.11777,-0.933776 -4.13441,1.30408 -6.46754,3.950669 -6.49094,7.363005 -0.0353,5.154046 5.67119,8.462626 11.83,6.858876 z m 70.03114,6.89702 c -4.38156,-0.64214 -8.09184,-2.52748 -11.35712,-5.77102 -4.53369,-4.50349 -6.63721,-10.3456 -6.27335,-17.423084 0.32662,-6.352842 2.03738,-10.309117 6.3008,-14.571079 3.13187,-3.130768 5.39686,-4.423158 9.59936,-5.477296 2.26877,-0.569094 3.29165,-0.650998 6.24,-0.499667 3.82931,0.19655 5.42093,0.594333 8.40474,2.100554 3.2198,1.625353 7.27193,5.869788 8.37587,8.773417 0.29411,0.773511 0.20925,0.835722 -2.88173,2.112391 -1.75162,0.723478 -3.28998,1.312553 -3.41861,1.309062 -0.12861,-0.0035 -0.66586,-0.739696 -1.19386,-1.636006 -2.28589,-3.880407 -5.73062,-5.7825 -10.56,-5.830916 -2.59683,-0.02605 -3.09152,0.07046 -5.03146,0.981392 -2.80112,1.315325 -5.0255,3.429936 -6.44051,6.122688 -1.43645,2.733591 -1.8536,4.587828 -1.84678,8.209191 0.01,5.259251 2.12086,9.747238 5.88979,12.521773 2.59504,1.91034 4.69968,2.48254 8.36989,2.27556 4.65085,-0.26229 7.68941,-1.99065 9.95619,-5.663173 l 1.16298,-1.88416 2.60995,1.125357 c 1.43549,0.618944 2.94365,1.255811 3.35145,1.415257 l 0.74154,0.289907 -1.06154,1.985452 c -3.71875,6.95553 -12.19548,10.8156 -20.9376,9.5344 z M 17.405443,79.021697 c 0,-16.808 0.03883,-23.684 0.08628,-15.28 0.04745,8.404 0.04745,22.156 0,30.56 -0.04745,8.403993 -0.08628,1.528 -0.08628,-15.28 z m 299.046347,9.6 v -20.8 h 3.68 3.68001 v 3.36 c 0,1.848 0.11126,3.36 0.24723,3.36 0.13596,0 0.51414,-0.495655 0.84042,-1.101456 1.54448,-2.867978 5.94722,-5.878711 9.56707,-6.542269 2.84917,-0.522285 7.79536,0.234717 7.44799,1.139901 -0.0937,0.244067 -0.61888,1.887686 -1.16717,3.652483 -0.98813,3.180605 -1.00466,3.207008 -1.88861,3.012867 -1.79081,-0.393328 -5.38252,-0.234355 -7.02409,0.31089 -2.33501,0.775561 -5.15309,3.46007 -6.49719,6.189232 l -1.04566,2.1232 -0.0935,13.047574 -0.0935,13.047571 h -3.82652 -3.8265 z m 72.96,-9.6 v -30.4 h 3.87584 3.87587 l -0.11865,12.48 c -0.0652,6.864 -0.0963,12.48 -0.0689,12.48 0.0272,0 1.03657,-0.973927 2.24278,-2.164282 3.42407,-3.379075 6.90394,-4.875718 11.33664,-4.875718 6.15837,0 11.00029,2.555264 13.41047,7.077216 2.03539,3.818771 2.02883,3.756659 2.163,20.522784 l 0.12228,15.279993 h -3.85965 -3.85965 V 95.728929 c 0,-15.099047 -0.10845,-16.15425 -1.93302,-18.80617 -0.53207,-0.773328 -1.57479,-1.758931 -2.31719,-2.190233 -1.6591,-0.963885 -4.98937,-1.594669 -6.93696,-1.313933 -4.584,0.660768 -8.43187,4.424704 -9.81718,9.603104 -0.32215,1.204163 -0.42899,4.667731 -0.43184,14 l -0.004,12.399993 h -3.84 -3.84 z"
             id="path883"
             sodipodi:nodetypes="sssssssssscssssscssssscssssscssssssssscssssscsssssssssscccssssssscsssssssssssscccsssssssssssssssssssssssssscssscsscssssssccccsscsssssscccccccccccssssscccsssssccccc" />
          <path
             style="fill:#141414;stroke-width:0.32"
             d="m 136.76544,127.43481 c 0,-0.14852 1.81282,-4.21977 4.02849,-9.04722 2.21567,-4.82745 4.24271,-9.30567 4.50452,-9.95161 l 0.47602,-1.17444 -8.66451,-19.527635 c -4.76549,-10.740202 -8.66452,-19.610813 -8.66452,-19.712474 0,-0.10166 2.76679,-0.145728 6.14842,-0.09793 l 6.14842,0.08691 5.26164,12.573824 c 3.7909,9.059187 5.39155,12.547597 5.72641,12.48 0.28489,-0.05751 2.40194,-4.95345 5.46994,-12.649911 l 5.00517,-12.556086 6.02157,-0.0039 c 5.80189,-0.0038 6.01441,0.01859 5.82574,0.613053 -0.1077,0.339331 -5.93832,13.767331 -12.95693,29.84 l -12.76111,29.223019 -5.78463,0.0872 c -3.18155,0.048 -5.78464,-0.0343 -5.78464,-0.18282 z M 78.365443,110.27953 c -10.508448,-2.05131 -17.44,-10.64783 -17.44,-21.629116 0,-8.656135 4.410886,-16.083875 11.678585,-19.666231 2.906765,-1.432787 5.401296,-2.069587 8.961415,-2.287654 10.871648,-0.665923 19.946287,5.814358 22.583907,16.127386 0.4193,1.639417 0.61609,3.50055 0.61609,5.826499 0,10.526323 -6.095118,18.715046 -15.839997,21.280856 -2.703895,0.71193 -7.830791,0.88101 -10.56,0.34826 z m 9.28,-10.767942 c 2.1256,-1.017504 4.176688,-3.120697 5.225542,-5.358294 0.770737,-1.644269 0.854457,-2.183456 0.854457,-5.50288 0,-3.319424 -0.0837,-3.858611 -0.854457,-5.50288 -1.04177,-2.222483 -3.08392,-4.325415 -5.225542,-5.381063 -1.375204,-0.677868 -2.049594,-0.789193 -4.8,-0.792368 -3.343735,-0.0038 -4.475773,0.349389 -6.926669,2.161412 -2.370365,1.752486 -4.113331,5.784294 -4.113331,9.514899 0,5.304243 2.851094,9.691235 7.36,11.324867 2.13608,0.773929 6.37926,0.541909 8.48,-0.463693 z m -70.24,-20.489891 V 48.592982 l 12.4,0.143767 c 13.76111,0.159548 14.545756,0.257153 18.898838,2.3509 3.325325,1.599418 6.647002,4.81847 8.313066,8.056227 1.59759,3.104691 2.123929,5.262288 2.123929,8.706538 0,5.392678 -1.528569,9.061891 -5.413187,12.993933 -1.966806,1.990819 -3.121798,2.861843 -4.967501,3.746185 -3.818729,1.829687 -5.726285,2.167763 -13.355145,2.366919 l -6.8,0.177516 v 11.157725 11.157718 h -5.6 -5.6 z m 26.08,-3.701978 c 2.796595,-1.509052 4.41646,-4.252579 4.409824,-7.4688 -0.007,-3.385564 -1.483837,-5.88678 -4.409824,-7.468547 -1.176823,-0.636182 -1.828132,-0.700243 -8.08,-0.794723 l -6.8,-0.102765 v 8.36553 8.365529 l 6.8,-0.102764 c 6.246966,-0.09441 6.904099,-0.158938 8.08,-0.79346 z m 68.319997,3.730695 v -30.4 h 5.44 5.44 v 30.4 30.399996 h -5.44 -5.44 z"
             id="path881" />
        </g>
      </g>
    </g>
  </g>
</svg>
